<svg width="92" height="92" viewBox="0 0 92 92" fill="none" xmlns="http://www.w3.org/2000/svg">
<circle cx="46" cy="46" r="46" fill="#201F1F"/>
<path d="M71 23.5H21C18.2424 23.5 16 25.7424 16 28.5V63.5001C16 66.2576 18.2424 68.5 21 68.5H71.0001C73.7576 68.5 76 66.2576 76 63.5V28.5C76 25.7424 73.7576 23.5 71 23.5ZM21 26H71.0001C71.1843 26 71.3466 26.0671 71.5194 26.105C67.1907 30.0669 52.837 43.1979 47.8141 47.7236C47.421 48.0776 46.7875 48.5 46.0001 48.5C45.2128 48.5 44.5792 48.0776 44.1849 47.7224C39.1624 43.1974 24.8079 30.0656 20.4798 26.1053C20.653 26.0673 20.8157 26 21 26ZM18.5 63.5V28.5C18.5 28.2551 18.5738 28.033 18.6399 27.8091C21.953 30.8414 31.9683 40.0036 38.4624 45.909C31.9894 51.4692 21.9715 60.967 18.632 64.1515C18.5731 63.939 18.5 63.731 18.5 63.5ZM71 66H21C20.8004 66 20.6228 65.9305 20.4364 65.8859C23.8872 62.5962 33.9689 53.0438 40.328 47.6036C41.157 48.3556 41.9143 49.0412 42.5112 49.5791C43.5415 50.5093 44.7475 51 46 51C47.2525 51 48.4585 50.5092 49.4875 49.5803C50.0847 49.0422 50.8426 48.3559 51.672 47.6036C58.0315 53.0432 68.1117 62.595 71.5636 65.8859C71.3771 65.9305 71.1999 66 71 66ZM73.5 63.5C73.5 63.731 73.427 63.939 73.3681 64.1515C70.0273 60.9654 60.0106 51.4687 53.5377 45.9091C60.032 40.0037 70.0458 30.8424 73.3601 27.8089C73.4262 28.0327 73.5 28.255 73.5 28.4999V63.5Z" fill="#E8E8E8"/>
</svg>
