<svg width="63" height="63" viewBox="0 0 63 63" fill="none" xmlns="http://www.w3.org/2000/svg">
<path d="M57.75 7.875H5.25004C2.3545 7.875 0 10.2295 0 13.125V49.8751C0 52.7705 2.3545 55.125 5.25004 55.125H57.7501C60.6455 55.125 63 52.7705 63 49.875V13.125C63 10.2295 60.6455 7.875 57.75 7.875ZM5.25004 10.5H57.7501C57.9435 10.5 58.1139 10.5705 58.2954 10.6103C53.7502 14.7702 38.6789 28.5578 33.4048 33.3098C32.9921 33.6815 32.3269 34.125 31.5001 34.125C30.6734 34.125 30.0082 33.6815 29.5941 33.3085C24.3205 28.5573 9.24833 14.7689 4.70384 10.6106C4.8857 10.5707 5.05649 10.5 5.25004 10.5ZM2.62496 49.875V13.125C2.62496 12.8679 2.70248 12.6346 2.77188 12.3996C6.25066 15.5835 16.7667 25.2038 23.5855 31.4045C16.7889 37.2427 6.2701 47.2154 2.76363 50.5591C2.70174 50.3359 2.62496 50.1176 2.62496 49.875ZM57.75 52.5H5.25004C5.04037 52.5 4.85395 52.427 4.65819 52.3802C8.28155 48.926 18.8673 38.896 25.5444 33.1838C26.4148 33.9734 27.21 34.6933 27.8368 35.2581C28.9186 36.2348 30.1849 36.75 31.5 36.75C32.8151 36.75 34.0814 36.2347 35.1619 35.2593C35.7889 34.6943 36.5847 33.9737 37.4556 33.1838C44.1331 38.8954 54.7173 48.9247 58.3418 52.3802C58.146 52.427 57.9599 52.5 57.75 52.5ZM60.375 49.875C60.375 50.1175 60.2983 50.3359 60.2365 50.5591C56.7287 47.2137 46.2111 37.2421 39.4146 31.4046C46.2336 25.2039 56.7481 15.5845 60.2281 12.3993C60.2975 12.6343 60.375 12.8678 60.375 13.1249V49.875V49.875Z" fill="white"/>
</svg>
