<svg width="520" height="520" viewBox="0 0 520 520" fill="none" xmlns="http://www.w3.org/2000/svg">
<path d="M407.296 135.084C407.664 135.643 408.02 136.184 408.365 136.707C409.836 138.938 411.091 140.839 412.08 142.468C413.314 144.5 414.06 145.991 414.317 147.077C414.442 147.607 414.431 147.961 414.363 148.2C414.303 148.415 414.177 148.607 413.909 148.794C413.29 149.225 412.032 149.547 409.747 149.641C405.253 149.826 397.695 149.121 385.986 148.014L385.546 147.973C373.958 146.877 358.451 145.411 338.119 144.067C332.79 141.549 327.96 135.216 325.136 127.867C322.285 120.448 321.604 112.321 324.26 106.51C326.945 100.634 333.117 95.2208 340.111 91.5287C347.065 87.8583 354.579 86.0219 359.93 86.9679C370.933 92.0322 381.567 102.196 390.087 112.083C398.616 121.983 404.94 131.502 407.296 135.084Z" fill="url(#paint0_linear)" stroke="#06FFF0" stroke-width="2"/>
<path d="M327.273 60.609C330.91 60.2747 334.059 59.9856 336.712 59.8713C339.379 59.7564 341.459 59.8233 342.982 60.1644C344.499 60.504 345.279 61.0706 345.644 61.8117C346.033 62.6006 346.098 63.8704 345.496 65.9435C344.293 70.0852 340.689 76.5885 334.232 86.6314C327.816 96.609 318.664 109.965 306.449 127.785C301.338 131.398 293.113 132.714 285.091 131.747C276.987 130.769 269.444 127.508 265.735 122.379C261.981 117.188 260.488 109.087 260.962 101.051C261.432 93.0651 263.827 85.4294 267.551 81.0596C288.449 65.9988 318.44 61.4206 327.273 60.609Z" fill="url(#paint1_linear)" stroke="#06FFF0" stroke-width="2"/>
<path d="M72.8688 296.337C69.2608 290.007 66.5477 284.833 64.685 280.676C62.8127 276.498 61.8378 273.429 61.636 271.285C61.5358 270.221 61.6343 269.458 61.8486 268.923C62.0517 268.416 62.3737 268.073 62.8421 267.839C63.8749 267.325 65.7167 267.3 68.6026 267.982C74.2876 269.325 82.972 273.129 94.495 278.458C96.9966 279.614 99.6282 280.841 102.386 282.127C112.242 286.72 123.716 292.068 136.66 297.677C140.311 301.278 142.516 307.827 142.8 314.626C143.087 321.504 141.393 328.285 137.64 332.2C133.835 336.167 127.295 338.758 120.532 339.708C113.816 340.651 107.162 339.938 103.052 337.612C88.2097 323.345 77.5035 304.496 73.369 297.216C73.1898 296.901 73.023 296.607 72.8688 296.337Z" fill="url(#paint2_linear)" stroke="#06FFF0" stroke-width="2"/>
<path d="M90.6627 360.037C88.8534 357.987 87.2924 356.218 86.0567 354.676C84.8124 353.123 83.9538 351.868 83.505 350.847C83.0572 349.829 83.0997 349.241 83.3215 348.845C83.574 348.395 84.2309 347.866 85.751 347.388C88.7742 346.439 94.3031 345.959 103.294 345.754C112.208 345.551 124.389 345.619 140.646 345.71C145.034 347.299 149.413 351.648 152.334 356.814C155.297 362.056 156.582 367.819 155.127 372.009C153.646 376.273 149.426 380.417 144.332 383.386C139.284 386.327 133.626 387.97 129.38 387.525C111.024 381.109 95.0437 365.001 90.6627 360.037Z" fill="url(#paint3_linear)" stroke="#06FFF0" stroke-width="2"/>
<path d="M134.345 412.09C132.06 411.025 130.092 410.107 128.477 409.253C126.852 408.394 125.66 407.638 124.888 406.918C124.125 406.205 123.891 405.639 123.907 405.137C123.925 404.592 124.244 403.831 125.246 402.762C127.255 400.617 131.453 397.808 138.544 393.744C145.566 389.719 155.3 384.53 168.295 377.605C172.371 377.166 177.591 379.159 182.025 382.54C186.521 385.967 189.93 390.608 190.491 395.051C191.061 399.566 189.379 405.133 186.536 409.997C183.716 414.819 179.898 418.703 176.384 420.123C167.825 421.18 158.729 419.837 151.038 417.885C143.319 415.925 137.085 413.368 134.345 412.09Z" fill="url(#paint4_linear)" stroke="#06FFF0" stroke-width="2"/>
<path d="M172.931 314.774C175.494 313.102 177.709 311.657 179.62 310.537C181.544 309.409 183.085 308.654 184.307 308.318C185.525 307.982 186.22 308.115 186.671 308.46C187.172 308.843 187.663 309.696 187.955 311.465C188.537 314.986 188.197 321.204 187.008 331.19C185.829 341.102 183.833 354.589 181.169 372.588C178.699 377.23 173.141 381.399 166.916 383.807C160.61 386.246 153.96 386.751 149.485 384.437C144.94 382.087 140.984 376.712 138.481 370.577C136 364.492 135.058 357.927 136.234 353.263C146.269 333.939 166.718 318.827 172.931 314.774Z" fill="url(#paint5_linear)" stroke="#06FFF0" stroke-width="2"/>
<path d="M193.445 349.959C194.757 347.39 195.892 345.167 196.908 343.363C197.932 341.543 198.792 340.226 199.54 339.426C200.325 338.587 200.702 338.606 200.85 338.652C200.973 338.691 201.184 338.809 201.472 339.154C201.758 339.497 202.075 340.011 202.42 340.743C203.818 343.712 205.33 349.516 207.306 359.073C209.269 368.567 211.669 381.649 214.871 399.104C214.462 404.425 211.732 410.544 208.08 415.286C206.246 417.667 204.21 419.66 202.172 421.016C200.124 422.377 198.155 423.043 196.42 422.921C194.631 422.795 192.684 421.968 190.722 420.56C188.767 419.158 186.853 417.22 185.139 414.97C181.718 410.479 179.2 404.882 178.709 400.098C180.261 378.358 190.263 356.189 193.445 349.959Z" fill="url(#paint6_linear)" stroke="#06FFF0" stroke-width="2"/>
<path d="M222.38 378.334C222.897 375.748 223.344 373.515 223.795 371.675C224.25 369.82 224.691 368.45 225.17 367.553C225.66 366.634 226.033 366.491 226.252 366.483C226.58 366.471 227.232 366.7 228.342 367.772C230.505 369.861 233.591 374.324 238.201 381.862C242.776 389.34 248.788 399.736 256.812 413.611C257.917 418.208 257.075 424.192 254.959 429.314C253.895 431.888 252.529 434.197 250.975 435.967C249.417 437.743 247.72 438.922 246.002 439.352C242.434 440.244 237.543 438.826 232.953 436.009C228.424 433.231 224.459 429.254 222.643 425.379C217.936 406.452 221.129 384.594 222.38 378.334Z" fill="url(#paint7_linear)" stroke="#06FFF0" stroke-width="2"/>
<path d="M263.622 396.292C263.444 394.211 263.291 392.422 263.232 390.925C263.172 389.414 263.212 388.289 263.383 387.51C263.557 386.724 263.803 386.542 263.948 386.485C264.169 386.399 264.695 386.373 265.801 386.848C267.972 387.783 271.431 390.223 276.844 394.557C282.2 398.846 289.368 404.905 298.936 412.994C300.806 416.044 301.496 420.668 300.98 425.05C300.453 429.53 298.718 433.374 296.163 434.992C293.537 436.655 289.333 436.977 285.049 436.175C280.826 435.384 276.814 433.555 274.527 431.237C266.489 418.482 264.052 401.314 263.622 396.292Z" fill="url(#paint8_linear)" stroke="#06FFF0" stroke-width="2"/>
<path d="M254.816 48.5532C257.906 47.0296 260.579 45.7122 262.886 44.7161C265.203 43.7153 267.074 43.0735 268.567 42.86C270.047 42.6483 271.007 42.8766 271.676 43.4322C272.375 44.0128 272.966 45.1197 273.304 47.1323C273.984 51.1731 273.533 58.1046 272.041 69.134C270.559 80.0836 268.075 94.9303 264.757 114.743C261.766 119.591 255.066 123.511 247.541 125.366C239.944 127.24 231.847 126.924 226.354 123.641C220.8 120.321 216.046 113.673 213.072 106.439C210.115 99.2461 209.028 91.7418 210.469 86.6756C216.534 76.5781 225.707 67.9841 234.349 61.4326C243.016 54.8624 251.089 50.3903 254.816 48.5532Z" fill="url(#paint9_linear)" stroke="#06FFF0" stroke-width="2"/>
<path d="M300.245 398.663C299.806 396.702 299.431 395.019 299.185 393.592C298.938 392.153 298.839 391.057 298.916 390.251C298.991 389.455 299.219 389.107 299.472 388.927C299.761 388.721 300.333 388.553 301.474 388.672C303.765 388.912 307.543 390.209 313.548 392.753C319.48 395.265 327.457 398.934 338.108 403.835C340.299 406.162 341.562 410.352 341.585 414.741C341.608 419.209 340.346 423.53 337.879 425.963C335.361 428.445 331.092 430.043 326.673 430.574C322.303 431.099 318.068 430.547 315.52 429.044C310.733 424.154 307.181 417.779 304.687 411.987C302.18 406.168 300.767 401.002 300.245 398.663Z" fill="url(#paint10_linear)" stroke="#06FFF0" stroke-width="2"/>
<path d="M330.128 388.793C328.955 387.476 327.952 386.349 327.158 385.363C326.356 384.368 325.822 383.581 325.544 382.949C325.271 382.325 325.312 382.008 325.405 381.816C325.518 381.582 325.849 381.231 326.768 380.848C328.612 380.081 332.051 379.494 337.754 378.926C343.378 378.366 351.064 377.835 361.329 377.128C363.96 377.986 366.687 380.629 368.561 383.952C370.474 387.345 371.326 391.139 370.481 393.98C369.615 396.891 367.04 399.877 363.881 402.123C360.763 404.34 357.306 405.673 354.744 405.596C349.005 403.864 343.577 400.487 339.202 397.109C334.802 393.712 331.522 390.358 330.128 388.793Z" fill="url(#paint11_linear)" stroke="#06FFF0" stroke-width="2"/>
<path d="M371.494 419.55C370.312 420.887 369.299 422.032 368.406 422.949C367.504 423.875 366.783 424.504 366.193 424.855C365.608 425.202 365.322 425.177 365.166 425.117C364.957 425.036 364.594 424.751 364.148 423.844C363.259 422.037 362.42 418.581 361.425 412.818C360.443 407.131 359.328 399.333 357.84 388.919C358.466 386.107 360.831 383.025 363.903 380.757C367.044 378.438 370.633 377.181 373.415 377.735C376.272 378.305 379.351 380.601 381.773 383.589C384.161 386.535 385.731 389.935 385.854 392.582C383.377 404.792 374.341 416.331 371.494 419.55Z" fill="url(#paint12_linear)" stroke="#06FFF0" stroke-width="2"/>
<path d="M360.088 367.284C358.681 366.39 357.48 365.626 356.503 364.934C355.517 364.236 354.831 363.658 354.414 363.152C354.005 362.656 353.952 362.348 353.984 362.136C354.022 361.884 354.221 361.468 354.93 360.858C356.36 359.629 359.262 358.112 364.205 355.968C369.073 353.855 375.789 351.186 384.761 347.623C387.304 347.684 390.432 349.352 393.004 351.908C395.63 354.518 397.426 357.807 397.445 360.697C397.463 363.658 395.974 367.167 393.767 370.148C391.588 373.092 388.878 375.294 386.598 375.945C381.021 375.955 375.269 374.354 370.448 372.451C365.598 370.537 361.757 368.345 360.088 367.284Z" fill="url(#paint13_linear)" stroke="#06FFF0" stroke-width="2"/>
<path d="M349.665 193.486C349.135 194.897 348.683 196.1 348.254 197.089C347.82 198.089 347.441 198.793 347.081 199.244C346.728 199.685 346.493 199.761 346.345 199.769C346.156 199.779 345.778 199.696 345.119 199.181C343.791 198.143 341.935 195.851 339.147 191.847C336.405 187.909 332.838 182.433 328.073 175.116C327.676 172.878 328.561 169.832 330.328 167.105C332.137 164.313 334.681 162.151 337.179 161.622C339.747 161.078 343.079 161.758 346.092 163.175C349.062 164.572 351.468 166.564 352.447 168.444C353.467 173.377 353.108 178.756 352.316 183.371C351.518 188.017 350.292 191.817 349.665 193.486Z" fill="url(#paint14_linear)" stroke="#06FFF0" stroke-width="2"/>
<path d="M391.422 239.603C389.791 240.72 388.389 241.68 387.188 242.427C385.974 243.182 385.038 243.67 384.334 243.89C383.615 244.115 383.412 243.98 383.353 243.93C383.224 243.819 382.976 243.432 382.895 242.294C382.737 240.078 383.263 236.098 384.513 229.623C385.748 223.217 387.664 214.496 390.222 202.853C391.926 199.892 395.422 197.172 399.227 195.555C403.13 193.897 406.982 193.55 409.347 194.868C411.789 196.229 413.834 199.502 415.001 203.398C416.149 207.229 416.358 211.375 415.433 214.334C408.396 226.895 395.356 236.908 391.422 239.603Z" fill="url(#paint15_linear)" stroke="#06FFF0" stroke-width="2"/>
<path d="M375.764 213.305C374.555 214.595 373.521 215.699 372.605 216.582C371.682 217.473 370.939 218.08 370.321 218.419C369.715 218.752 369.363 218.756 369.122 218.672C368.845 218.576 368.439 218.272 367.938 217.408C366.927 215.668 365.907 212.338 364.632 206.769C363.375 201.279 361.898 193.753 359.926 183.701C360.487 181.039 362.857 178.09 366.041 175.904C369.289 173.674 373.095 172.437 376.144 172.989C379.261 173.553 382.649 175.803 385.339 178.693C387.996 181.548 389.779 184.819 390.013 187.342C388.933 193.168 386.129 198.857 383.196 203.513C380.245 208.196 377.201 211.771 375.764 213.305Z" fill="url(#paint16_linear)" stroke="#06FFF0" stroke-width="2"/>
<path d="M399.083 302.079C397.208 302.173 395.601 302.253 394.252 302.255C392.89 302.256 391.877 302.175 391.163 301.983C390.458 301.793 390.217 301.543 390.119 301.329C390 301.07 389.941 300.552 390.259 299.534C390.894 297.497 392.768 294.268 396.196 289.2C399.579 284.197 404.395 277.514 410.827 268.59C413.349 266.968 417.4 266.473 421.406 267.132C425.493 267.804 429.183 269.618 430.932 272.203C432.723 274.85 433.405 278.953 433.083 283.047C432.764 287.09 431.489 290.841 429.657 292.916C418.89 300.147 403.6 301.853 399.083 302.079Z" fill="url(#paint17_linear)" stroke="#06FFF0" stroke-width="2"/>
<path d="M388.102 336.86C386.286 336.385 384.73 335.978 383.443 335.573C382.144 335.164 381.202 334.782 380.579 334.383C379.964 333.99 379.81 333.679 379.78 333.445C379.745 333.163 379.845 332.651 380.454 331.776C381.674 330.025 384.433 327.51 389.228 323.709C393.961 319.957 400.565 315.035 409.386 308.463C412.279 307.675 416.291 308.423 419.913 310.257C423.608 312.129 426.581 314.97 427.47 317.962C428.381 321.025 427.795 325.143 426.255 328.95C424.734 332.709 422.389 335.902 420.016 337.33C407.572 340.983 392.478 338.005 388.102 336.86Z" fill="url(#paint18_linear)" stroke="#06FFF0" stroke-width="2"/>
<path d="M398.515 267.725C396.82 268.187 395.37 268.582 394.143 268.855C392.903 269.131 391.977 269.262 391.315 269.234C390.653 269.206 390.473 269.035 390.406 268.936C390.302 268.784 390.17 268.377 390.33 267.394C390.646 265.449 391.936 262.184 394.407 256.955C396.845 251.794 400.371 244.841 405.081 235.556C407.176 233.585 410.803 232.328 414.519 232.111C418.325 231.888 421.857 232.773 423.724 234.677C425.647 236.638 426.79 240.125 427.021 243.847C427.248 247.513 426.572 251.121 425.167 253.351C416.291 262.001 402.592 266.612 398.515 267.725Z" fill="url(#paint19_linear)" stroke="#06FFF0" stroke-width="2"/>
<g filter="url(#filter0_d)">
<path d="M399.358 395.35C389.725 406.065 391.603 399.275 387.656 356.144C389.178 349.634 398.388 342.634 404.513 344.066C410.637 345.498 416.76 354.558 416.674 360.641C413.686 373.418 402.307 392.07 399.358 395.35Z" fill="url(#paint20_linear)"/>
<path d="M398.615 394.681C397.416 396.015 396.427 397.041 395.6 397.753C394.741 398.491 394.19 398.77 393.865 398.822C393.737 398.842 393.669 398.823 393.618 398.797C393.554 398.766 393.439 398.683 393.29 398.464C392.975 398 392.655 397.144 392.353 395.73C391.755 392.933 391.323 388.447 390.792 381.892C390.659 380.252 390.52 378.486 390.371 376.589C389.93 370.978 389.398 364.224 388.667 356.219C389.404 353.32 391.858 350.196 394.949 347.934C398.113 345.618 401.642 344.422 404.285 345.04C407.007 345.677 409.887 348.076 412.108 351.19C414.296 354.258 415.677 357.785 415.675 360.521C414.197 366.759 410.676 374.472 407.121 381.083C403.535 387.751 400.001 393.139 398.615 394.681Z" stroke="#06FFF0" stroke-width="2"/>
</g>
<g filter="url(#filter1_d)">
<path d="M433.444 353.195C428.131 367.833 428.131 367.833 405.806 326.932C404.603 319.866 411.059 309.074 417.933 307.904C424.806 306.734 434.912 313.093 437.403 319.132C439.763 333.001 435.071 348.715 433.444 353.195Z" fill="url(#paint21_linear)"/>
<path d="M432.504 352.854C431.838 354.691 431.265 356.267 430.724 357.561C430.178 358.868 429.696 359.807 429.232 360.407C428.771 361.005 428.459 361.104 428.257 361.102C427.995 361.1 427.502 360.934 426.693 360.165C425.087 358.639 422.895 355.392 419.659 349.845C416.461 344.365 412.309 336.759 406.766 326.604C406.286 323.42 407.477 319.286 409.689 315.736C411.947 312.112 415.074 309.405 418.1 308.89C421.204 308.362 425.2 309.534 428.8 311.674C432.353 313.787 435.275 316.697 436.436 319.412C438.707 332.99 434.112 348.426 432.504 352.854Z" stroke="#06FFF0" stroke-width="2"/>
</g>
<g filter="url(#filter2_d)">
<path d="M450.707 302.106C449.909 314.831 449.909 314.831 420.848 291.343C418.062 286.424 420.787 276.218 426.279 273.107C431.772 269.996 441.876 271.494 445.489 275.223C450.957 284.879 450.952 298.211 450.707 302.106Z" fill="url(#paint22_linear)"/>
<path d="M449.709 302.044C449.609 303.642 449.523 305.006 449.393 306.147C449.262 307.3 449.094 308.143 448.862 308.726C448.635 309.296 448.404 309.479 448.217 309.551C447.994 309.635 447.556 309.667 446.715 309.364C445.015 308.751 442.384 307.045 438.265 303.926C434.21 300.856 428.824 296.504 421.63 290.69C420.51 288.552 420.46 285.17 421.42 281.823C422.401 278.401 424.342 275.354 426.772 273.977C429.263 272.567 432.92 272.155 436.467 272.592C439.967 273.024 443.079 274.246 444.683 275.831C447.285 280.478 448.611 286.031 449.249 290.954C449.891 295.908 449.828 300.15 449.709 302.044Z" stroke="#06FFF0" stroke-width="2"/>
</g>
<g filter="url(#filter3_d)">
<path d="M447.328 256.537C448.206 268.786 448.206 268.786 416.935 251.646C413.59 247.465 414.91 237.267 419.84 233.324C424.769 229.381 434.774 228.996 438.767 231.896C445.332 240.104 447.059 252.788 447.328 256.537Z" fill="url(#paint23_linear)"/>
<path d="M446.33 256.609C446.441 258.148 446.534 259.459 446.557 260.567C446.579 261.685 446.526 262.513 446.377 263.107C446.232 263.686 446.029 263.916 445.837 264.029C445.619 264.156 445.193 264.261 444.346 264.125C442.625 263.848 439.857 262.701 435.451 260.471C431.12 258.279 425.331 255.108 417.599 250.87C416.267 249.064 415.778 245.892 416.274 242.542C416.781 239.119 418.268 235.862 420.464 234.105C422.712 232.307 426.219 231.261 429.717 231.042C433.171 230.825 436.33 231.431 438.073 232.63C441.186 236.569 443.188 241.595 444.445 246.154C445.71 250.747 446.2 254.789 446.33 256.609Z" stroke="#06FFF0" stroke-width="2"/>
</g>
<g filter="url(#filter4_d)">
<path d="M433.714 208.406C440.279 218.784 440.279 218.784 404.62 218.465C399.696 216.362 396.038 206.752 398.518 200.947C400.997 195.142 409.631 190.072 414.521 190.74C424.186 194.869 431.705 205.23 433.714 208.406Z" fill="url(#paint24_linear)"/>
<path d="M432.869 208.941C433.694 210.245 434.397 211.356 434.94 212.322C435.488 213.296 435.833 214.051 435.982 214.645C436.128 215.223 436.058 215.523 435.942 215.712C435.81 215.928 435.485 216.222 434.674 216.502C433.026 217.072 430.045 217.37 425.109 217.488C420.256 217.604 413.656 217.546 404.839 217.467C402.811 216.506 400.88 213.942 399.733 210.756C398.562 207.5 398.332 203.926 399.437 201.34C400.568 198.693 403.163 196.113 406.142 194.266C409.083 192.443 412.153 191.483 414.257 191.715C418.862 193.714 423.002 197.196 426.265 200.62C429.551 204.069 431.894 207.399 432.869 208.941Z" stroke="#06FFF0" stroke-width="2"/>
</g>
<g filter="url(#filter5_d)">
<path d="M399.444 166.218C410.708 171.11 410.708 171.11 381.04 190.895C375.785 191.924 367.357 186.033 366.144 179.839C364.93 173.644 369.22 164.597 373.64 162.4C383.954 160.38 395.997 164.721 399.444 166.218Z" fill="url(#paint25_linear)"/>
<path d="M399.046 167.135C400.461 167.75 401.667 168.274 402.659 168.767C403.661 169.264 404.37 169.695 404.828 170.102C405.273 170.499 405.384 170.785 405.395 171.007C405.407 171.26 405.303 171.686 404.79 172.373C403.748 173.771 401.45 175.694 397.434 178.567C393.486 181.391 387.995 185.054 380.659 189.946C378.442 190.292 375.404 189.257 372.664 187.267C369.865 185.233 367.666 182.407 367.125 179.646C366.572 176.822 367.268 173.229 368.693 170.027C370.1 166.865 372.099 164.345 373.969 163.355C378.901 162.419 384.283 162.971 388.906 163.968C393.563 164.972 397.372 166.409 399.046 167.135Z" stroke="#06FFF0" stroke-width="2"/>
</g>
<g filter="url(#filter6_d)">
<path d="M364.155 149.333C377.248 150.842 377.248 150.842 350.196 178.818C344.841 181.352 334.536 178.042 331.836 172.336C329.135 166.63 331.639 156.535 335.84 153.102C346.35 148.127 360.147 148.871 364.155 149.333Z" fill="url(#paint26_linear)"/>
<path d="M364.04 150.327C365.685 150.516 367.09 150.678 368.26 150.872C369.443 151.069 370.302 151.285 370.886 151.552C371.459 151.815 371.614 152.054 371.665 152.227C371.727 152.444 371.724 152.883 371.326 153.723C370.528 155.408 368.508 157.971 364.891 161.948C361.327 165.866 356.31 171.056 349.608 177.987C347.258 179.019 343.724 178.875 340.344 177.72C336.888 176.54 333.927 174.417 332.739 171.908C331.521 169.334 331.438 165.635 332.226 162.083C333.004 158.579 334.567 155.493 336.381 153.952C341.455 151.577 347.345 150.547 352.507 150.176C357.701 149.803 362.089 150.102 364.04 150.327Z" stroke="#06FFF0" stroke-width="2"/>
</g>
<path d="M331.362 443.889C329.761 444.714 328.389 445.421 327.218 445.957C326.034 446.5 325.134 446.83 324.469 446.944C323.8 447.06 323.604 446.922 323.534 446.852C323.413 446.731 323.207 446.356 323.192 445.33C323.163 443.31 323.87 439.763 325.401 434.005C326.913 428.32 329.19 420.608 332.231 410.31C333.975 407.867 337.375 405.824 341.034 404.808C344.783 403.767 348.439 403.901 350.615 405.394C352.859 406.935 354.609 410.168 355.495 413.844C356.368 417.462 356.336 421.229 355.325 423.776C348.026 434.346 335.216 441.902 331.362 443.889Z" fill="url(#paint27_linear)" stroke="#06FFF0" stroke-width="2"/>
<path d="M180.946 441.281C178.756 440.735 176.874 440.264 175.317 439.795C173.747 439.322 172.593 438.874 171.826 438.398C171.063 437.925 170.851 437.533 170.816 437.214C170.776 436.837 170.934 436.199 171.71 435.156C173.257 433.079 176.696 430.115 182.604 425.665C188.451 421.26 196.604 415.48 207.488 407.765C211.109 406.79 216.044 407.672 220.429 409.816C224.891 411.997 228.46 415.325 229.475 418.855C230.511 422.459 229.686 427.298 227.712 431.766C225.758 436.185 222.796 439.98 219.806 441.684C204.542 446.031 186.234 442.601 180.946 441.281Z" fill="url(#paint28_linear)" stroke="#06FFF0" stroke-width="2"/>
<path d="M236.447 455.428C234.211 455.53 232.289 455.618 230.676 455.614C229.05 455.61 227.825 455.511 226.959 455.275C226.098 455.041 225.779 454.727 225.651 454.427C225.5 454.076 225.464 453.421 225.894 452.206C226.749 449.782 229.139 445.973 233.434 440.037C237.684 434.164 243.716 426.32 251.769 415.848C254.91 413.89 259.84 413.324 264.624 414.121C269.491 414.932 273.854 417.093 275.854 420.178C277.895 423.328 278.533 428.188 277.972 433.017C277.417 437.794 275.722 442.259 273.393 444.736C260.203 453.235 241.847 455.18 236.447 455.428Z" fill="url(#paint29_linear)" stroke="#06FFF0" stroke-width="2"/>
<path d="M291.3 454.555C289.488 455.231 287.934 455.81 286.611 456.233C285.275 456.659 284.258 456.897 283.505 456.932C282.757 456.967 282.471 456.796 282.333 456.635C282.158 456.431 281.96 455.949 282.002 454.848C282.086 452.655 283.07 448.914 285.087 442.903C287.079 436.964 290.031 428.939 293.973 418.225C296.032 415.826 299.896 414.073 304.002 413.466C308.193 412.846 312.278 413.469 314.66 415.432C317.102 417.444 318.856 421.224 319.624 425.32C320.382 429.364 320.128 433.437 318.868 436.053C310.219 446.486 295.666 452.926 291.3 454.555Z" fill="url(#paint30_linear)" stroke="#06FFF0" stroke-width="2"/>
<path d="M76 208C76 204.459 75.8267 200.989 75.658 197.782C75.6485 197.602 75.6391 197.423 75.6297 197.245C75.4709 194.236 75.3258 191.486 75.3373 189.106C75.3497 186.565 75.5426 184.562 76.0282 183.169C76.4978 181.821 77.1653 181.22 78.0986 181.078C79.1792 180.915 80.8816 181.314 83.4967 182.766C86.0736 184.196 89.3776 186.558 93.5955 190.054C102.009 197.027 113.932 208.405 130.771 225.592C133.567 231.076 136.508 242.326 137.273 253.024C137.658 258.406 137.486 263.574 136.502 267.748C135.512 271.948 133.751 274.939 131.131 276.297C125.394 279.27 117.198 279.729 109.414 278.325C101.676 276.929 94.6271 273.744 90.9963 269.701C85.3519 258.8 81.6189 250.361 79.2856 241.191C76.9447 231.991 76 222.004 76 208Z" fill="url(#paint31_linear)" stroke="#06FFF0" stroke-width="2"/>
<path d="M169.064 261.963C172.567 261.617 175.598 261.319 178.159 261.195C180.732 261.07 182.746 261.126 184.239 261.455C185.72 261.781 186.529 262.337 186.94 263.089C187.372 263.88 187.505 265.136 187.048 267.168C186.13 271.242 183.03 277.651 177.372 287.568C171.752 297.415 163.684 310.598 152.916 328.189C148.208 331.737 140.356 333.069 132.537 332.154C124.643 331.23 117.131 328.055 113.221 323.002C109.266 317.893 107.342 309.913 107.324 302.003C107.307 294.14 109.173 286.634 112.499 282.336C122.122 274.917 134.1 270.031 144.783 266.894C155.495 263.748 164.839 262.38 169.064 261.963Z" fill="url(#paint32_linear)" stroke="#06FFF0" stroke-width="2"/>
<path d="M122.123 108.054C123.73 104.937 125.059 102.596 126.228 100.999C127.435 99.3474 128.306 98.7262 128.923 98.6193C129.411 98.5351 130.088 98.7359 131.097 99.9864C132.091 101.217 133.198 103.219 134.522 106.087C136.255 109.838 138.29 114.913 140.883 121.378C142.25 124.785 143.772 128.579 145.486 132.769C150.425 144.844 156.933 160.136 165.859 178.757C166.281 184.637 163.134 191.953 158.118 198.021C153.053 204.147 146.307 208.728 139.941 209.267C133.503 209.812 125.758 207.092 119.108 202.81C112.497 198.553 107.209 192.908 105.406 187.782C104.411 175.641 107.581 157.662 111.538 141.658C113.518 133.65 115.686 126.172 117.603 120.223C119.529 114.248 121.18 109.882 122.123 108.054Z" fill="url(#paint33_linear)" stroke="#06FFF0" stroke-width="2"/>
<path d="M184.257 198.738C187.743 199.219 190.76 199.636 193.279 200.113C195.81 200.592 197.756 201.117 199.131 201.785C200.495 202.448 201.152 203.177 201.376 204.005C201.611 204.875 201.448 206.127 200.528 207.996C198.686 211.743 194.176 217.252 186.359 225.574C178.597 233.838 167.674 244.774 153.098 259.366C147.693 261.718 139.747 261.181 132.357 258.466C124.896 255.725 118.333 250.884 115.71 245.059C113.057 239.168 113.048 230.959 114.877 223.264C116.695 215.614 120.262 208.751 124.498 205.347C135.587 200.379 148.374 198.424 159.495 197.866C170.646 197.307 180.05 198.157 184.257 198.738Z" fill="url(#paint34_linear)" stroke="#06FFF0" stroke-width="2"/>
<path d="M177.812 70.6118C180.011 67.8637 181.914 65.4863 183.614 63.5665C185.322 61.6377 186.769 60.2354 188.047 59.3966C189.315 58.564 190.278 58.3736 191.103 58.6051C191.971 58.8484 192.963 59.6301 194.097 61.377C196.372 64.8788 198.794 71.574 201.939 82.5495C205.062 93.4485 208.861 108.43 213.93 128.423C213.182 134.27 208.651 140.82 202.535 145.777C196.36 150.781 188.842 153.939 182.494 153.21C176.076 152.472 169.02 148.275 163.348 142.763C157.708 137.284 153.64 130.706 152.886 125.324C154.297 113.255 159.166 101.271 164.383 91.4336C169.613 81.57 175.159 73.9271 177.812 70.6118Z" fill="url(#paint35_linear)" stroke="#06FFF0" stroke-width="2"/>
<path d="M232.528 158.861C235.171 161.186 237.457 163.197 239.296 164.984C241.144 166.779 242.477 168.29 243.256 169.605C244.029 170.911 244.174 171.881 243.904 172.696C243.621 173.551 242.794 174.505 240.996 175.558C237.393 177.667 230.592 179.776 219.483 182.408C208.45 185.021 193.308 188.121 173.102 192.256C167.296 191.237 160.963 186.407 156.296 180.067C151.583 173.666 148.778 166.009 149.802 159.703C150.837 153.325 155.357 146.472 161.126 141.062C166.861 135.683 173.621 131.924 179.032 131.421C191.022 133.391 202.768 138.812 212.352 144.479C221.962 150.162 229.339 156.057 232.528 158.861Z" fill="url(#paint36_linear)" stroke="#06FFF0" stroke-width="2"/>
<path d="M345.862 134.79C347.16 138.062 348.283 140.892 349.109 143.319C349.939 145.758 350.441 147.71 350.537 149.236C350.632 150.749 350.321 151.68 349.711 152.283C349.069 152.916 347.899 153.391 345.82 153.511C341.651 153.753 334.635 152.542 323.542 149.839C312.527 147.154 297.63 143.036 277.751 137.539C273.041 133.993 269.595 126.813 268.317 119.045C267.028 111.202 268.008 103.106 271.785 97.9532C275.605 92.7424 282.744 88.6914 290.342 86.4925C297.895 84.3065 305.625 84.0298 310.674 86.0401C320.46 93.243 328.46 103.408 334.423 112.812C340.402 122.24 344.295 130.843 345.862 134.79Z" fill="url(#paint37_linear)" stroke="#06FFF0" stroke-width="2"/>
<path d="M288.208 142.358C289.769 145.513 291.119 148.242 292.14 150.594C293.166 152.957 293.825 154.862 294.045 156.374C294.264 157.875 294.029 158.828 293.471 159.479C292.883 160.163 291.756 160.731 289.693 161.021C285.558 161.602 278.466 160.967 267.19 159.177C255.993 157.4 240.809 154.511 220.548 150.653C215.565 147.504 211.544 140.629 209.637 132.991C207.712 125.279 208.028 117.13 211.373 111.687C214.755 106.182 221.54 101.562 228.933 98.7503C236.283 95.9555 243.964 95.0493 249.16 96.641C259.501 103.022 268.304 112.5 275.014 121.386C281.742 130.295 286.325 138.552 288.208 142.358Z" fill="url(#paint38_linear)" stroke="#06FFF0" stroke-width="2"/>
<path d="M331.742 167C294.676 171.892 265.016 184.833 240.444 212.505C217.389 238.47 213.904 275.824 229.633 306.174C244.88 335.594 278.395 355.115 313.405 345.546C333.664 340.009 348.825 327.52 352.378 307.387C356.65 283.18 338.265 266.735 317.289 265.285C309.802 264.767 288.157 273.475 289.322 286.579" stroke="url(#paint39_linear)" stroke-width="3" stroke-linecap="round" stroke-linejoin="round"/>
<defs>
<filter id="filter0_d" x="374.279" y="340.955" width="49.4394" height="69.9579" filterUnits="userSpaceOnUse" color-interpolation-filters="sRGB">
<feFlood flood-opacity="0" result="BackgroundImageFix"/>
<feColorMatrix in="SourceAlpha" type="matrix" values="0 0 0 0 0 0 0 0 0 0 0 0 0 0 0 0 0 0 127 0"/>
<feOffset dy="4"/>
<feGaussianBlur stdDeviation="2"/>
<feColorMatrix type="matrix" values="0 0 0 0 0 0 0 0 0 0 0 0 0 0 0 0 0 0 0.25 0"/>
<feBlend mode="normal" in2="BackgroundImageFix" result="effect1_dropShadow"/>
<feBlend mode="normal" in="SourceGraphic" in2="effect1_dropShadow" result="shape"/>
</filter>
<filter id="filter1_d" x="399" y="305" width="49.2564" height="67.849" filterUnits="userSpaceOnUse" color-interpolation-filters="sRGB">
<feFlood flood-opacity="0" result="BackgroundImageFix"/>
<feColorMatrix in="SourceAlpha" type="matrix" values="0 0 0 0 0 0 0 0 0 0 0 0 0 0 0 0 0 0 127 0"/>
<feOffset dy="4"/>
<feGaussianBlur stdDeviation="2"/>
<feColorMatrix type="matrix" values="0 0 0 0 0 0 0 0 0 0 0 0 0 0 0 0 0 0 0.25 0"/>
<feBlend mode="normal" in2="BackgroundImageFix" result="effect1_dropShadow"/>
<feBlend mode="normal" in="SourceGraphic" in2="effect1_dropShadow" result="shape"/>
</filter>
<filter id="filter2_d" x="410.347" y="265.384" width="55.0205" height="60.3581" filterUnits="userSpaceOnUse" color-interpolation-filters="sRGB">
<feFlood flood-opacity="0" result="BackgroundImageFix"/>
<feColorMatrix in="SourceAlpha" type="matrix" values="0 0 0 0 0 0 0 0 0 0 0 0 0 0 0 0 0 0 127 0"/>
<feOffset dy="4"/>
<feGaussianBlur stdDeviation="2"/>
<feColorMatrix type="matrix" values="0 0 0 0 0 0 0 0 0 0 0 0 0 0 0 0 0 0 0.25 0"/>
<feBlend mode="normal" in2="BackgroundImageFix" result="effect1_dropShadow"/>
<feBlend mode="normal" in="SourceGraphic" in2="effect1_dropShadow" result="shape"/>
</filter>
<filter id="filter3_d" x="405.131" y="223.534" width="56.6982" height="58.5482" filterUnits="userSpaceOnUse" color-interpolation-filters="sRGB">
<feFlood flood-opacity="0" result="BackgroundImageFix"/>
<feColorMatrix in="SourceAlpha" type="matrix" values="0 0 0 0 0 0 0 0 0 0 0 0 0 0 0 0 0 0 127 0"/>
<feOffset dy="4"/>
<feGaussianBlur stdDeviation="2"/>
<feColorMatrix type="matrix" values="0 0 0 0 0 0 0 0 0 0 0 0 0 0 0 0 0 0 0.25 0"/>
<feBlend mode="normal" in2="BackgroundImageFix" result="effect1_dropShadow"/>
<feBlend mode="normal" in="SourceGraphic" in2="effect1_dropShadow" result="shape"/>
</filter>
<filter id="filter4_d" x="389.131" y="186.534" width="57.4538" height="51.2165" filterUnits="userSpaceOnUse" color-interpolation-filters="sRGB">
<feFlood flood-opacity="0" result="BackgroundImageFix"/>
<feColorMatrix in="SourceAlpha" type="matrix" values="0 0 0 0 0 0 0 0 0 0 0 0 0 0 0 0 0 0 127 0"/>
<feOffset dy="4"/>
<feGaussianBlur stdDeviation="2"/>
<feColorMatrix type="matrix" values="0 0 0 0 0 0 0 0 0 0 0 0 0 0 0 0 0 0 0.25 0"/>
<feBlend mode="normal" in2="BackgroundImageFix" result="effect1_dropShadow"/>
<feBlend mode="normal" in="SourceGraphic" in2="effect1_dropShadow" result="shape"/>
</filter>
<filter id="filter5_d" x="359.131" y="156.534" width="54.1045" height="44.7618" filterUnits="userSpaceOnUse" color-interpolation-filters="sRGB">
<feFlood flood-opacity="0" result="BackgroundImageFix"/>
<feColorMatrix in="SourceAlpha" type="matrix" values="0 0 0 0 0 0 0 0 0 0 0 0 0 0 0 0 0 0 127 0"/>
<feOffset dy="4"/>
<feGaussianBlur stdDeviation="2"/>
<feColorMatrix type="matrix" values="0 0 0 0 0 0 0 0 0 0 0 0 0 0 0 0 0 0 0.25 0"/>
<feBlend mode="normal" in2="BackgroundImageFix" result="effect1_dropShadow"/>
<feBlend mode="normal" in="SourceGraphic" in2="effect1_dropShadow" result="shape"/>
</filter>
<filter id="filter6_d" x="321.131" y="138.658" width="61.7972" height="54.0728" filterUnits="userSpaceOnUse" color-interpolation-filters="sRGB">
<feFlood flood-opacity="0" result="BackgroundImageFix"/>
<feColorMatrix in="SourceAlpha" type="matrix" values="0 0 0 0 0 0 0 0 0 0 0 0 0 0 0 0 0 0 127 0"/>
<feOffset dy="4"/>
<feGaussianBlur stdDeviation="2"/>
<feColorMatrix type="matrix" values="0 0 0 0 0 0 0 0 0 0 0 0 0 0 0 0 0 0 0.25 0"/>
<feBlend mode="normal" in2="BackgroundImageFix" result="effect1_dropShadow"/>
<feBlend mode="normal" in="SourceGraphic" in2="effect1_dropShadow" result="shape"/>
</filter>
<linearGradient id="paint0_linear" x1="383.379" y1="96.5839" x2="357.195" y2="153.885" gradientUnits="userSpaceOnUse">
<stop stop-color="#0720FF"/>
<stop offset="1" stop-color="#00FFF0"/>
</linearGradient>
<linearGradient id="paint1_linear" x1="286.78" y1="65.9194" x2="323.497" y2="116.692" gradientUnits="userSpaceOnUse">
<stop stop-color="#001AFF"/>
<stop offset="1" stop-color="#00FFF0"/>
</linearGradient>
<linearGradient id="paint2_linear" x1="82.0697" y1="318.877" x2="119.505" y2="279.839" gradientUnits="userSpaceOnUse">
<stop stop-color="#0085FF"/>
<stop offset="1" stop-color="#0AFBEC"/>
</linearGradient>
<linearGradient id="paint3_linear" x1="111.581" y1="382.402" x2="126.411" y2="339.706" gradientUnits="userSpaceOnUse">
<stop stop-color="#0057FF"/>
<stop offset="1" stop-color="#7DF802"/>
</linearGradient>
<linearGradient id="paint4_linear" x1="160.107" y1="423.187" x2="154.442" y2="378.345" gradientUnits="userSpaceOnUse">
<stop stop-color="#0057FF"/>
<stop offset="1" stop-color="#13FF71"/>
</linearGradient>
<linearGradient id="paint5_linear" x1="144.849" y1="334.424" x2="189.967" y2="357.753" gradientUnits="userSpaceOnUse">
<stop stop-color="#0057FF"/>
<stop offset="1" stop-color="#7DF802"/>
</linearGradient>
<linearGradient id="paint6_linear" x1="179.162" y1="379.411" x2="217.072" y2="382.078" gradientUnits="userSpaceOnUse">
<stop stop-color="#0057FF"/>
<stop offset="1" stop-color="#7DF802"/>
</linearGradient>
<linearGradient id="paint7_linear" x1="220.729" y1="414.375" x2="254.57" y2="399.636" gradientUnits="userSpaceOnUse">
<stop stop-color="#075CFF"/>
<stop offset="1" stop-color="#13FF71"/>
</linearGradient>
<linearGradient id="paint8_linear" x1="265.997" y1="419.636" x2="293.356" y2="402.311" gradientUnits="userSpaceOnUse">
<stop stop-color="#F8D106"/>
<stop offset="1" stop-color="#13FF71"/>
</linearGradient>
<linearGradient id="paint9_linear" x1="221.147" y1="66.8615" x2="275.224" y2="99.1841" gradientUnits="userSpaceOnUse">
<stop stop-color="#0720FF"/>
<stop offset="1" stop-color="#00FFF0"/>
</linearGradient>
<linearGradient id="paint10_linear" x1="305.56" y1="420.366" x2="331.044" y2="395.242" gradientUnits="userSpaceOnUse">
<stop stop-color="#F8EE02"/>
<stop offset="1" stop-color="#17F8A7"/>
</linearGradient>
<linearGradient id="paint11_linear" x1="343.368" y1="403.255" x2="352.258" y2="373.383" gradientUnits="userSpaceOnUse">
<stop stop-color="#0AFBEC"/>
<stop offset="1" stop-color="#FAFF02"/>
</linearGradient>
<linearGradient id="paint12_linear" x1="385.178" y1="407.819" x2="355.57" y2="401.916" gradientUnits="userSpaceOnUse">
<stop stop-color="#0085FF"/>
<stop offset="1" stop-color="#6BF770"/>
</linearGradient>
<linearGradient id="paint13_linear" x1="375.809" y1="377.014" x2="375.617" y2="346.678" gradientUnits="userSpaceOnUse">
<stop stop-color="#C7F806"/>
<stop offset="1" stop-color="#00FFF0"/>
</linearGradient>
<linearGradient id="paint14_linear" x1="355.451" y1="177.799" x2="328.812" y2="183.442" gradientUnits="userSpaceOnUse">
<stop stop-color="#0085FF"/>
<stop offset="1" stop-color="#6BF770"/>
</linearGradient>
<linearGradient id="paint15_linear" x1="409.627" y1="226.804" x2="383.762" y2="212.385" gradientUnits="userSpaceOnUse">
<stop stop-color="#00A3FF"/>
<stop offset="1" stop-color="#AAF806"/>
</linearGradient>
<linearGradient id="paint16_linear" x1="388.957" y1="198.79" x2="357.216" y2="193.045" gradientUnits="userSpaceOnUse">
<stop stop-color="#0057FF"/>
<stop offset="1" stop-color="#6BF770"/>
</linearGradient>
<linearGradient id="paint17_linear" x1="419.944" y1="300.695" x2="401.619" y2="273.611" gradientUnits="userSpaceOnUse">
<stop stop-color="#C7F806"/>
<stop offset="1" stop-color="#17F8A7"/>
</linearGradient>
<linearGradient id="paint18_linear" x1="408.412" y1="341.823" x2="399.093" y2="310.477" gradientUnits="userSpaceOnUse">
<stop stop-color="#C7F806"/>
<stop offset="1" stop-color="#17F8A7"/>
</linearGradient>
<linearGradient id="paint19_linear" x1="417.408" y1="262.36" x2="397.266" y2="241.818" gradientUnits="userSpaceOnUse">
<stop stop-color="#FAFF02"/>
<stop offset="1" stop-color="#6BF770"/>
</linearGradient>
<linearGradient id="paint20_linear" x1="413.254" y1="375.268" x2="384.743" y2="368.601" gradientUnits="userSpaceOnUse">
<stop stop-color="#0AFBEC"/>
<stop offset="1" stop-color="#FAFF02"/>
</linearGradient>
<linearGradient id="paint21_linear" x1="438.423" y1="340.328" x2="406.424" y2="345.773" gradientUnits="userSpaceOnUse">
<stop stop-color="#FAFF02"/>
<stop offset="1" stop-color="#17F8A7"/>
</linearGradient>
<linearGradient id="paint22_linear" x1="450.642" y1="284.323" x2="425.072" y2="298.803" gradientUnits="userSpaceOnUse">
<stop stop-color="#F3F806"/>
<stop offset="1" stop-color="#06FEB4" stop-opacity="0.48"/>
</linearGradient>
<linearGradient id="paint23_linear" x1="444.954" y1="239.631" x2="422.007" y2="257.986" gradientUnits="userSpaceOnUse">
<stop stop-color="#0AFBEC"/>
<stop offset="1" stop-color="#FAFF02"/>
</linearGradient>
<linearGradient id="paint24_linear" x1="423.629" y1="194.631" x2="412.087" y2="221.654" gradientUnits="userSpaceOnUse">
<stop stop-color="#0085FF"/>
<stop offset="0.994792" stop-color="#B8F802"/>
</linearGradient>
<linearGradient id="paint25_linear" x1="383.359" y1="160.497" x2="389.008" y2="189.334" gradientUnits="userSpaceOnUse">
<stop stop-color="#00B2FF"/>
<stop offset="1" stop-color="#6BF770"/>
</linearGradient>
<linearGradient id="paint26_linear" x1="345.744" y1="148.414" x2="358.315" y2="174.975" gradientUnits="userSpaceOnUse">
<stop stop-color="#13FF71"/>
<stop offset="1" stop-color="#0057FF"/>
</linearGradient>
<linearGradient id="paint27_linear" x1="349.207" y1="434.456" x2="325.577" y2="418.234" gradientUnits="userSpaceOnUse">
<stop stop-color="#0057FF"/>
<stop offset="1" stop-color="#6BF770"/>
</linearGradient>
<linearGradient id="paint28_linear" x1="205.541" y1="446.826" x2="195.04" y2="410.302" gradientUnits="userSpaceOnUse">
<stop stop-color="#0057FF"/>
<stop offset="1" stop-color="#13FF71"/>
</linearGradient>
<linearGradient id="paint29_linear" x1="261.381" y1="453.713" x2="240.71" y2="421.823" gradientUnits="userSpaceOnUse">
<stop stop-color="#0057FF"/>
<stop offset="1" stop-color="#7DF802"/>
</linearGradient>
<linearGradient id="paint30_linear" x1="311.408" y1="446.679" x2="286.286" y2="425.979" gradientUnits="userSpaceOnUse">
<stop stop-color="#0057FF"/>
<stop offset="1" stop-color="#7DF802"/>
</linearGradient>
<linearGradient id="paint31_linear" x1="76.2083" y1="243.336" x2="127.358" y2="216.831" gradientUnits="userSpaceOnUse">
<stop stop-color="#0085FF"/>
<stop offset="1" stop-color="#06FFF0"/>
</linearGradient>
<linearGradient id="paint32_linear" x1="130.216" y1="267.357" x2="168.778" y2="317.176" gradientUnits="userSpaceOnUse">
<stop stop-color="#0057FF"/>
<stop offset="1" stop-color="#06FEB4"/>
</linearGradient>
<linearGradient id="paint33_linear" x1="101.773" y1="156.705" x2="164.548" y2="151.392" gradientUnits="userSpaceOnUse">
<stop stop-color="#075CFF"/>
<stop offset="1" stop-color="#13FF71"/>
</linearGradient>
<linearGradient id="paint34_linear" x1="145.222" y1="194.917" x2="171.093" y2="252.36" gradientUnits="userSpaceOnUse">
<stop stop-color="#0085FF"/>
<stop offset="1" stop-color="#13FF71"/>
</linearGradient>
<linearGradient id="paint35_linear" x1="154.54" y1="102.183" x2="217.128" y2="109.379" gradientUnits="userSpaceOnUse">
<stop stop-color="#0720FF"/>
<stop offset="1" stop-color="#0AFBEC"/>
</linearGradient>
<linearGradient id="paint36_linear" x1="202.072" y1="134.148" x2="191.977" y2="196.334" gradientUnits="userSpaceOnUse">
<stop stop-color="#0085FF"/>
<stop offset="1" stop-color="#06FEB4"/>
</linearGradient>
<linearGradient id="paint37_linear" x1="329.959" y1="98.9373" x2="304" y2="142" gradientUnits="userSpaceOnUse">
<stop stop-color="#0085FF"/>
<stop offset="1" stop-color="#00FFF0"/>
</linearGradient>
<linearGradient id="paint38_linear" x1="269.434" y1="107.922" x2="236.455" y2="161.601" gradientUnits="userSpaceOnUse">
<stop stop-color="#0085FF"/>
<stop offset="1" stop-color="#00FFF0"/>
</linearGradient>
<linearGradient id="paint39_linear" x1="286.5" y1="167" x2="300" y2="276" gradientUnits="userSpaceOnUse">
<stop stop-color="#06FFF0"/>
<stop offset="1" stop-color="#06FFF0" stop-opacity="0.19"/>
</linearGradient>
</defs>
</svg>
