<svg width="759" height="758" viewBox="0 0 759 758" fill="none" xmlns="http://www.w3.org/2000/svg">
<circle cx="375" cy="383" r="375" fill="black"/>
<circle cx="337" cy="425" r="310" fill="black" stroke="white" stroke-width="10"/>
<path d="M277.025 74.9207C278.307 64.3043 281.686 54.236 287.191 46.9699C306.759 21.1399 346.731 9.89251 377.243 5.18382C413.121 -0.35293 449.96 1.19628 486.153 1.19628H515.145C519.306 1.19628 506.922 2.49564 502.85 3.3562C464.017 11.5649 434.93 35.5718 406.9 62.3385C378.76 89.2113 354.257 120.351 312.861 121.985C303.761 122.345 291.151 122.983 283.768 116.307C283.718 116.262 283.668 116.216 283.619 116.17C276.177 109.275 275.308 96.1186 275.478 86.7622C275.554 82.555 276.095 78.623 277.025 74.9207Z" fill="white"/>
<path d="M396.868 97.4758C400.441 87.3969 405.942 78.3119 412.903 72.426C437.648 51.5025 479.111 49.2718 509.915 51.3521C546.135 53.7983 581.742 63.3688 617.059 71.2865L645.349 77.629C649.41 78.5393 637.04 77.0979 632.88 77.047C593.191 76.5615 559.556 93.6237 526.35 113.61C493.013 133.676 462.292 158.702 421.54 151.24C412.582 149.6 400.138 147.464 394.394 139.334C394.355 139.279 394.317 139.224 394.279 139.169C388.526 130.812 390.555 117.785 392.768 108.692C393.763 104.604 395.151 100.885 396.868 97.4758Z" fill="white"/>
<path d="M312.428 96.0373C299.441 95.3158 285.551 105.159 278.938 117.546C279.942 141.315 291.399 163.713 308.607 180.108C333.732 204.046 366.414 222.155 397.662 236.764C414.445 244.611 411.154 240.326 405.471 227.626C385.703 183.453 374.805 99.5027 312.428 96.0373Z" fill="white"/>
<path d="M492.843 183.603C491.247 179.458 491.273 174.415 492.659 168.568C498.142 145.451 519.677 136.158 541.931 133.451C571.576 129.844 600.131 137.556 627.545 145.21C652.984 152.312 651.828 152.747 676.103 158.262C682.473 159.71 699.706 158.748 695.435 163.226C722.947 156.553 740.089 152.394 749.389 150.137C762.365 146.988 760.077 147.541 749.389 150.137C738.083 152.883 717.377 157.914 695.398 163.265C695.348 163.316 695.296 163.367 695.241 163.42C693.157 165.395 689.788 165.267 687.002 165.935C550.373 198.661 628.74 179.493 695.398 163.265C695.411 163.252 695.423 163.239 695.435 163.226C680.545 166.838 662.616 171.186 641.248 176.367C610.806 183.749 580.675 191.884 549.467 193.06C531.051 193.753 509.017 192.874 492.843 183.603Z" fill="white"/>
<path d="M749.389 150.137C762.365 146.988 760.077 147.541 749.389 150.137Z" fill="white"/>
<path d="M628.69 293.336C628.312 282.68 625.779 273.842 620.481 267.57C617.076 258 626.702 262.201 614.793 249.863C608.965 243.826 597.948 240.114 589.778 240.581C572.312 241.58 563.564 254.559 561.602 270.634C558.454 296.438 566.767 324.055 572.083 348.915C577.671 375.043 581.618 401.709 587.521 427.73C589.917 438.295 590.537 435.785 594.703 426.715C600.293 414.548 607.93 393.148 611.658 381.543C620.561 353.834 629.736 322.856 628.69 293.336Z" fill="white"/>
<path d="M558.91 193.297C557.569 182.718 554.245 174.146 548.401 168.381C544.143 159.158 554.11 162.47 541.132 151.262C534.782 145.777 523.473 143.078 515.379 144.283C498.076 146.86 490.539 160.578 490.042 176.765C489.244 202.748 500.024 229.498 507.57 253.775C515.502 279.289 521.848 305.488 530.083 330.867C533.427 341.171 533.817 338.616 537.145 329.206C541.609 316.582 547.276 294.579 549.938 282.684C556.294 254.282 562.625 222.601 558.91 193.297Z" fill="white"/>
<path d="M390.832 161.081C387.339 153.412 385.252 145.281 385.716 137.759C384.708 129.001 383.571 122.014 391.392 113.118C400.727 102.499 415.026 101.075 427.877 105C486.882 123.019 482.284 204.087 472.854 251.407C471.157 259.923 467.585 279.434 460.537 274.362C456.251 271.279 454.49 265.689 451.858 261.112C447.205 253.017 443.381 244.463 438.701 236.384C424.034 211.058 402.975 187.737 390.832 161.081Z" fill="white"/>
<path d="M656.925 255.429C654.903 253.965 652.895 252.572 650.894 251.281C636.668 237.786 619.76 227.311 599.262 230.771C581.463 233.775 569.299 248.617 583.874 264.712C609.043 292.504 655.161 305.537 689.248 316.656C699.177 319.894 709.213 323.013 719.504 324.795C723.265 325.446 730.184 327.616 730.916 323.871C731.862 319.036 725.388 315.658 721.988 312.093C702.763 291.933 679.479 271.755 656.925 255.429Z" fill="white"/>
<path d="M644.476 348.992C632.369 352.748 628.69 363.077 628.85 373.642C629.25 375.126 629.634 376.513 629.973 377.771C637.625 406.14 649.794 433.32 660.041 460.796C664.379 472.428 668.158 484.277 672.913 495.745C674.053 498.495 674.792 501.651 676.932 503.72C677.64 504.404 678.723 502.42 678.805 501.44C680.009 487.051 678.041 472.571 677.526 458.142C677.093 446.022 675.97 407.343 674.593 394.745C673.123 381.296 668.661 341.49 644.476 348.992Z" fill="white"/>
</svg>
