<svg id="Capa_1" enable-background="new 0 0 497 497" height="512" viewBox="0 0 497 497" width="512" xmlns="http://www.w3.org/2000/svg"><g><g><path d="m46.382 495.32h-4.997c-6.564 0-11.885-5.321-11.885-11.885v-184.264l28.544-10 28.544 10-28.457 186.061c-.888 5.803-5.879 10.088-11.749 10.088z" fill="#8c818f"/></g><g><path d="m450.618 495.32h4.997c6.564 0 11.885-5.321 11.885-11.885v-184.264l-28.341-10-28.746 10 28.457 186.062c.887 5.802 5.878 10.087 11.748 10.087z" fill="#766d78"/></g><g><path d="m445.572 153.512c-4.702 0-8.513-3.811-8.513-8.513v-109.028c0-4.702 3.811-8.513 8.513-8.513s8.513 3.811 8.513 8.513v109.027c0 4.702-3.812 8.514-8.513 8.514z" fill="#444145"/></g><g><path d="m484.566 13.398c-2.643-8.721-11.858-13.648-20.576-11.004l-436.149 136.309c-.031.01-13.032 31.354-13.032 31.354 1.561.485 3.2.749 4.871.749 1.585 0 3.197-.23 4.792-.714l449.09-136.117c8.721-2.644 13.648-11.856 11.004-20.577z" fill="#544f56"/></g><g><path d="m482 281.079v-115.554c0-14.813-12.008-26.822-26.822-26.822h-427.337c-7.092 0-12.841 5.749-12.841 12.841v129.535z" fill="#655e67"/></g><path d="m455.178 138.703h-30c14.813 0 26.822 12.008 26.822 26.822v120.699c0 7.092-5.749 12.841-12.841 12.841h30c7.092 0 12.841-5.749 12.841-12.841v-120.699c0-14.814-12.008-26.822-26.822-26.822z" fill="#544f56"/><g><path d="m327.676 198.65h-158.352c-3.744 0-6.779-3.035-6.779-6.779v-11.496c0-3.744 3.035-6.779 6.779-6.779h158.351c3.744 0 6.779 3.035 6.779 6.779v11.496c0 3.744-3.035 6.779-6.778 6.779z" fill="#f7f7f7"/></g><g><path d="m66.588 273.736h-30.319v-40.62h30.319l10 20.31z" fill="#d9d9d9"/></g><g><path d="m96.906 273.736h-30.318v-40.62h30.318l10 20.31z" fill="#f7f7f7"/></g><g><path d="m127.225 273.736h-30.319v-40.62h30.319l10 20.31z" fill="#d9d9d9"/></g><g><path d="m157.544 273.736h-30.319v-40.62h30.319l10 20.31z" fill="#f7f7f7"/></g><g><path d="m187.863 273.736h-30.319v-40.62h30.319l10 20.31z" fill="#d9d9d9"/></g><g><path d="m218.181 273.736h-30.318v-40.62h30.318l10 20.31z" fill="#f7f7f7"/></g><g><path d="m248.5 273.736h-30.319v-40.62h30.319l10 20.31z" fill="#d9d9d9"/></g><g><path d="m278.819 273.736h-30.319v-40.62h30.319l10 20.31z" fill="#f7f7f7"/></g><g><path d="m309.137 273.736h-30.318v-40.62h30.318l10 20.31z" fill="#d9d9d9"/></g><g><path d="m339.456 273.736h-30.319v-40.62h30.319l10 20.31z" fill="#f7f7f7"/></g><g><path d="m369.775 273.736h-30.319v-40.62h30.319l10 18.38z" fill="#d9d9d9"/></g><g><path d="m400.093 273.736h-30.318v-40.62h30.318l10 20.31z" fill="#f7f7f7"/></g><g><path d="m430.412 273.736h-30.319v-40.62h30.319l10 18.38z" fill="#d9d9d9"/></g><g><path d="m460.731 273.736h-30.319v-40.62h30.319l10 20.31z" fill="#f7f7f7"/></g><g><path d="m197.752 495.32h-15.579c-1.832 0-3.316-1.046-3.316-2.336v-108.556h45.824l-23.65 108.91c-.248 1.14-1.641 1.982-3.279 1.982z" fill="#704c3b"/></g><g><path d="m313.248 495.32h15.579c1.832 0 3.316-1.046 3.316-2.336v-108.556h-45.824l23.65 108.91c.248 1.14 1.641 1.982 3.279 1.982z" fill="#704c3b"/></g><g><path d="m332.985 411.64h-158.061c-11.832 0-21.424-9.592-21.424-21.424v-16.365c0-11.832 9.592-21.424 21.424-21.424h158.061c11.832 0 21.424 9.592 21.424 21.424v16.365c0 11.833-9.592 21.424-21.424 21.424z" fill="#c27e4e"/></g><g><path d="m332.985 352.427h-30c11.832 0 21.424 9.592 21.424 21.424v16.365c0 11.832-9.592 21.424-21.424 21.424h30c11.832 0 21.424-9.592 21.424-21.424v-16.365c0-11.832-9.592-21.424-21.424-21.424z" fill="#b36d3c"/></g><g><path d="m460.731 216.742v41.888c0 4.469-3.623 8.091-8.091 8.091h-408.279c-4.469 0-8.091-3.623-8.091-8.091v-41.888c0-4.469-3.623-8.092-8.092-8.092h-20.086c-4.469 0-8.092 3.623-8.092 8.092v49.98 24.252c0 4.469 3.623 8.091 8.092 8.091h28.178 424.462 28.177c4.469 0 8.092-3.623 8.092-8.091v-24.252-49.98c0-4.469-3.623-8.092-8.092-8.092h-20.086c-4.469 0-8.092 3.623-8.092 8.092z" fill="#8c818f"/></g><g><path d="m488.908 208.65h-20.086c-1.87 0-3.587.641-4.957 1.706 1.904 1.48 3.135 3.787 3.135 6.386v49.98 24.252c0 4.469-3.623 8.091-8.092 8.091h1.823 28.177c4.469 0 8.092-3.623 8.092-8.091v-24.252-49.98c0-4.469-3.623-8.092-8.092-8.092z" fill="#766d78"/></g></g></svg>