<svg width="512" height="512" viewBox="0 0 512 512" fill="none" xmlns="http://www.w3.org/2000/svg">
<path d="M256 512C397.385 512 512 397.385 512 256C512 114.615 397.385 0 256 0C114.615 0 0 114.615 0 256C0 397.385 114.615 512 256 512Z" fill="#BA4B1A"/>
<path d="M393.183 259.35L111.957 302.227L314.909 505.179C394.328 486.475 459.465 430.787 491.165 357.287L393.183 259.35Z" fill="#A23F14"/>
<path d="M113.954 301.921C113.857 302.578 113.389 303.047 112.778 303.047C112.168 303.047 111.701 302.578 111.606 301.908L109.468 285.905L111.606 269.635C111.696 268.957 112.165 268.489 112.778 268.489C113.383 268.489 113.852 268.958 113.954 269.635L116.5 285.924L113.954 301.921Z" fill="white"/>
<path d="M124.849 311.644C124.747 312.34 124.244 312.827 123.62 312.827C123.015 312.827 122.484 312.341 122.401 311.644L119.524 285.901L122.401 259.58C122.487 258.903 123.015 258.397 123.62 258.397C124.244 258.397 124.749 258.892 124.849 259.58L128.123 285.901L124.849 311.644Z" fill="white"/>
<path d="M136.604 316.004C136.521 316.84 135.894 317.435 135.14 317.435C134.361 317.435 133.744 316.84 133.67 316.004L130.939 285.922L133.67 254.697C133.739 253.849 134.363 253.244 135.14 253.244C135.893 253.244 136.517 253.849 136.604 254.697L139.702 285.922L136.604 316.004Z" fill="white"/>
<path d="M148.475 316.959C148.389 317.917 147.639 318.643 146.748 318.643C145.836 318.643 145.09 317.919 145.014 316.959L142.435 285.922L145.014 253.838C145.09 252.871 145.836 252.147 146.748 252.147C147.639 252.147 148.389 252.871 148.475 253.838L151.399 285.922L148.475 316.959Z" fill="white"/>
<path d="M160.411 317.207C160.349 318.321 159.48 319.146 158.453 319.146C157.393 319.146 156.553 318.32 156.481 317.207L154.043 285.916L156.481 256.151C156.557 255.044 157.393 254.218 158.453 254.218C159.499 254.218 160.349 255.044 160.411 256.137L163.173 285.916L160.411 317.207Z" fill="white"/>
<path d="M172.463 317.226V317.209C172.391 318.442 171.413 319.416 170.237 319.416C169.058 319.416 168.08 318.439 168.011 317.227L165.735 285.936L168.011 237.51C168.08 236.277 169.057 235.303 170.237 235.303C171.417 235.303 172.394 236.28 172.463 237.492L175.042 285.937L172.463 317.226Z" fill="white"/>
<path d="M184.425 317.207V317.19C184.353 318.554 183.275 319.638 181.941 319.638C180.633 319.638 179.55 318.552 179.484 317.19L177.334 286.101L179.484 226.597C179.55 225.233 180.63 224.156 181.941 224.156C183.275 224.156 184.353 225.233 184.425 226.597L186.845 286.101L184.425 317.207Z" fill="white"/>
<path d="M196.832 316.728V316.711C196.779 318.23 195.584 319.409 194.117 319.409C192.65 319.409 191.455 318.23 191.402 316.73L189.407 285.96C189.407 285.96 191.402 221.498 191.402 221.479C191.459 219.979 192.65 218.778 194.117 218.778C195.584 218.778 196.782 219.98 196.832 221.479L199.085 285.96L196.832 316.728Z" fill="white"/>
<path d="M209.17 316.523C209.113 318.174 207.818 319.469 206.207 319.469C204.592 319.469 203.297 318.174 203.238 316.537L201.378 285.95L203.238 219.316C203.295 217.658 204.59 216.366 206.207 216.366C207.819 216.366 209.117 217.657 209.17 219.316L211.237 285.95L209.17 316.523Z" fill="white"/>
<path d="M221.586 316.252V316.235C221.529 318.019 220.133 319.438 218.362 319.438C216.617 319.438 215.192 318.021 215.159 316.254L213.449 285.96L215.14 221.029C215.19 219.219 216.61 217.819 218.36 217.819C220.13 217.819 221.527 219.219 221.584 221.029L223.503 285.96L221.586 316.252Z" fill="white"/>
<path d="M234.101 316.073V316.047C234.072 317.992 232.536 319.488 230.639 319.488C228.727 319.488 227.214 317.992 227.155 316.073L225.612 285.955L227.158 223.4C227.215 221.461 228.73 219.942 230.642 219.942C232.538 219.942 234.074 221.461 234.104 223.4L235.854 285.973L234.101 316.073Z" fill="white"/>
<path d="M246.872 312.896L246.717 315.846C246.7 316.873 246.267 317.804 245.607 318.475C244.929 319.135 243.999 319.558 243.014 319.558C241.868 319.558 240.857 319.032 240.164 318.201C239.652 317.599 239.335 316.82 239.299 316.001C239.289 315.965 239.289 315.918 239.289 315.868C239.289 315.868 237.865 285.988 237.865 285.938L239.272 212.219L239.289 211.512C239.299 210.221 239.985 209.071 241.009 208.411C241.583 208.028 242.261 207.806 243.017 207.806C243.76 207.806 244.463 208.037 245.051 208.444C246.049 209.111 246.702 210.233 246.721 211.516L248.286 285.975L246.872 312.896Z" fill="white"/>
<path d="M259.281 315.459V315.423C259.255 317.6 257.471 319.376 255.314 319.376C253.15 319.376 251.37 317.602 251.347 315.442L250.528 300.909L249.725 285.987L251.347 205.189V204.782C251.35 203.556 251.928 202.46 252.817 201.72C253.498 201.161 254.375 200.822 255.313 200.822C256.059 200.822 256.752 201.027 257.344 201.374C258.473 202.081 259.263 203.332 259.299 204.763L261.056 285.983L259.281 315.459Z" fill="white"/>
<path d="M366.501 319.455C366.501 319.455 266.673 319.455 266.57 319.455C264.413 319.234 262.708 317.519 262.672 315.307V200.907C262.708 198.8 263.432 197.716 266.144 196.673C273.143 193.961 281.07 192.36 289.215 192.36C322.445 192.36 349.674 217.851 352.563 250.325C356.84 248.541 361.563 247.524 366.501 247.524C386.4 247.524 402.532 263.665 402.532 283.578C402.532 303.487 386.398 319.455 366.501 319.455Z" fill="#D1D1D1"/>
</svg>
